HIERARCHY
ROOT Bip001_Pelvis
{
  OFFSET 7.937 94.8971 -8.5489
  CHANNELS 6 Xposition Yposition Zposition Zrotation Xrotation Yrotation
  JOINT Bip001_Spine
  {
    OFFSET 1.44608e-005 10.4157 -0.0118244
    CHANNELS 3 Zrotation Xrotation Yrotation
    JOINT Bip001_L_Thigh
    {
      OFFSET 11.2582 -10.4157 0.0118432
      CHANNELS 3 Zrotation Xrotation Yrotation
      JOINT Bip001_L_Calf
      {
        OFFSET -0.720717 -44.8687 0.366937
        CHANNELS 3 Zrotation Xrotation Yrotation
        JOINT Bip001_L_Foot
        {
          OFFSET -0.664439 -41.3745 -3.62995
          CHANNELS 3 Zrotation Xrotation Yrotation
          JOINT Bip001_L_Toe0
          {
            OFFSET 0.0541047 -10.4146 13.4033
            CHANNELS 3 Zrotation Xrotation Yrotation
            End Site
            {
              OFFSET -1.04503e-005 0 7.70137
            }
          }
        }
      }
    }
    JOINT Bip001_R_Thigh
    {
      OFFSET -11.2582 -10.4156 0.0118122
      CHANNELS 3 Zrotation Xrotation Yrotation
      JOINT Bip001_R_Calf
      {
        OFFSET 0.72059 -44.8687 0.36676
        CHANNELS 3 Zrotation Xrotation Yrotation
        JOINT Bip001_R_Foot
        {
          OFFSET 0.664321 -41.3745 -3.62979
          CHANNELS 3 Zrotation Xrotation Yrotation
          JOINT Bip001_R_Toe0
          {
            OFFSET -0.05417 -10.4146 13.4033
            CHANNELS 3 Zrotation Xrotation Yrotation
            End Site
            {
              OFFSET -1.04873e-005 0 7.70137
            }
          }
        }
      }
    }
    JOINT Bip001_Spine1
    {
      OFFSET 1.90638e-005 14.8539 1.10727
      CHANNELS 3 Zrotation Xrotation Yrotation
      JOINT Bip001_Spine2
      {
        OFFSET 2.28934e-005 14.7848 -1.7233
        CHANNELS 3 Zrotation Xrotation Yrotation
        JOINT Bip001_Neck
        {
          OFFSET 2.24514e-005 15.6905 -0.498826
          CHANNELS 3 Zrotation Xrotation Yrotation
          JOINT Bip001_L_Clavicle
          {
            OFFSET 6.17691 -0.000591152 0.00852867
            CHANNELS 3 Zrotation Xrotation Yrotation
            JOINT Bip001_L_UpperArm
            {
              OFFSET 11.773 -0.0611878 0.00197697
              CHANNELS 3 Zrotation Xrotation Yrotation
              JOINT Bip001_L_Forearm
              {
                OFFSET 26.4515 0.0817568 -2.19579
                CHANNELS 3 Zrotation Xrotation Yrotation
                JOINT Bip001_L_Hand
                {
                  OFFSET 32.8677 0.156744 1.67112
                  CHANNELS 3 Zrotation Xrotation Yrotation
                  JOINT Bip001_L_Finger0
                  {
                    OFFSET 6.16268 -2.25226 6.01674
                    CHANNELS 3 Zrotation Xrotation Yrotation
                    End Site
                    {
                      OFFSET 4.30499 -1.46662 0.618148
                    }
                  }
                  JOINT Bip001_L_Finger1
                  {
                    OFFSET 11.2957 -0.718374 -0.201963
                    CHANNELS 3 Zrotation Xrotation Yrotation
                    End Site
                    {
                      OFFSET 6.31952 -0.405163 -0.0802303
                    }
                  }
                }
              }
            }
          }
          JOINT Bip001_R_Clavicle
          {
            OFFSET -6.17691 -0.000574027 0.00851165
            CHANNELS 3 Zrotation Xrotation Yrotation
            JOINT Bip001_R_UpperArm
            {
              OFFSET -11.773 -0.0611516 0.00194365
              CHANNELS 3 Zrotation Xrotation Yrotation
              JOINT Bip001_R_Forearm
              {
                OFFSET -26.4514 0.0822334 -2.19736
                CHANNELS 3 Zrotation Xrotation Yrotation
                JOINT Bip001_R_Hand
                {
                  OFFSET -32.8677 0.156817 1.67144
                  CHANNELS 3 Zrotation Xrotation Yrotation
                  JOINT Bip001_R_Finger0
                  {
                    OFFSET -6.1627 -2.25224 6.0167
                    CHANNELS 3 Zrotation Xrotation Yrotation
                    End Site
                    {
                      OFFSET -4.30499 -1.46662 0.618134
                    }
                  }
                  JOINT Bip001_R_Finger1
                  {
                    OFFSET -11.2958 -0.718344 -0.201994
                    CHANNELS 3 Zrotation Xrotation Yrotation
                    End Site
                    {
                      OFFSET -6.31952 -0.405146 -0.0802475
                    }
                  }
                }
              }
            }
          }
          JOINT Bip001_Head
          {
            OFFSET 1.11782e-005 11.4912 2.09908
            CHANNELS 3 Zrotation Xrotation Yrotation
            End Site
            {
              OFFSET 2.95144e-005 21.2823 -2.83069e-005
            }
          }
        }
      }
    }
  }
}
MOTION
Frames:	6
Frame Time:	0.04
7.23152 95.6111 -8.30825 -0.374752 -3.27744 0.874453 0.076767 1.12122 0.0553929 6.15835 -5.43439 8.69548 -1.19486 14.3642 -1.28875 -3.12359 -5.81937 0.424008 0.540252 -9.83554 0.267674 -7.39119 -3.44532 -0.51095 0.285453 13.7501 2.31407 1.11523 -7.56613 -9.29917 -1.13481 -11.4554 0.542671 -0.0368851 2.2424 0.10696 -0.04947 2.24239 0.106489 -0.785864 -1.6576 -0.420437 -28.8207 7.94158 -13.4816 -53.3768 40.2469 9.08819 12.7887 1.02068 -24.8126 -4.647 -0.639731 0.273549 1.59028e-015 -3.18055e-015 -7.95139e-016 1.59028e-015 -3.18056e-015 -2.38542e-015 34.271 8.79719 13.5796 53.0585 31.5285 -14.2353 1.37394 -30.7627 16.0416 11.9255 -0.974258 -12.9158 -3.97569e-016 -6.36111e-015 4.77083e-015 -3.97569e-016 -3.18056e-015 3.18055e-015 -1.41129 -0.116615 -0.318885 
7.19898 95.6043 -8.33047 -0.412021 -3.23827 0.835782 0.0780154 1.09256 -0.00862743 6.24435 -5.47437 9.59782 -1.01229 14.4661 -1.8275 -3.15762 -5.84405 0.146596 0.53664 -9.83554 0.258142 -7.31774 -3.51243 -0.420628 0.257149 13.7971 2.37785 1.09823 -7.5651 -9.34748 -1.13646 -11.4554 0.531526 -0.0318403 2.18511 -0.0225485 -0.0337016 2.18511 -0.0226942 -0.939827 -1.46046 -0.219659 -28.6712 7.78031 -13.4955 -53.6397 39.6196 9.56462 12.9949 1.48094 -25.0478 -4.4589 -0.646856 0.511082 -1.59028e-015 0 2.38542e-015 -3.18055e-015 -6.36111e-015 3.18055e-015 34.2073 8.40736 13.3433 53.8104 31.1036 -15.6486 1.50596 -30.6169 18.8916 11.2108 -1.07614 -11.8131 7.95139e-016 -6.36111e-015 -1.59028e-015 1.19271e-015 -6.36111e-015 -3.18055e-015 -1.28016 -0.231042 -0.1982 
7.15939 95.6044 -8.33756 -0.441437 -3.24942 0.796125 0.0863074 1.08112 -0.0586878 6.2803 -5.47183 8.77441 -1.22356 14.4849 -1.15407 -3.16249 -5.86482 0.400095 0.532263 -9.83554 0.262555 -7.27367 -3.51307 -0.28352 0.271948 13.7985 2.33398 1.06632 -7.55163 -9.35005 -1.12969 -11.4554 0.529858 -0.00328534 2.15795 -0.123147 -0.00328551 2.15795 -0.123147 -1.13379 -1.44223 -0.049492 -28.5606 7.7933 -13.4566 -53.4854 39.4355 9.67014 12.7812 1.68755 -25.1842 -4.49851 -0.607433 0.517609 8.82781e-032 -6.36111e-015 7.95139e-016 1.59028e-015 -3.18056e-015 -1.59028e-015 34.0971 8.15935 13.0118 54.0039 30.948 -16.3581 1.86024 -30.4045 21.9224 10.9573 -1.0796 -11.7371 0 3.18055e-015 -0 -1.98785e-016 0 -0 -1.21782 -0.0796357 -0.0991217 
7.10923 95.6026 -8.34509 -0.475741 -3.29752 0.701969 0.101112 1.07996 -0.0587285 6.32984 -5.42469 8.46262 -1.30539 14.5041 -0.903544 -3.18492 -5.89685 0.548016 0.528074 -9.84229 0.26797 -7.22626 -3.49549 -0.209711 0.283526 13.8059 2.3551 1.06119 -7.55335 -9.35506 -1.16502 -11.4554 0.53499 0.0169941 2.15929 -0.123347 0.0169468 2.15927 -0.123296 -1.35174 -1.37039 0.0418875 -28.5006 7.80058 -13.5598 -53.4461 39.5496 10.0609 12.8835 1.8513 -25.436 -4.85528 -0.610011 0.140393 1.59028e-015 0 -0 1.59028e-015 -3.18056e-015 -0 34.2829 8.05976 13.0244 53.2884 30.682 -16.3942 1.89007 -29.5594 24.5892 11.2838 -1.29076 -12.1539 4.41391e-032 3.18055e-015 -7.95139e-016 -1.98785e-016 3.18056e-015 -1.59028e-015 -1.10744 -0.144602 -0.0976193 
7.0704 95.6003 -8.36544 -0.475408 -3.26018 0.61414 0.0940541 1.07816 -0.0306522 6.34152 -5.45713 8.5087 -1.26356 14.4998 -0.885791 -3.22736 -5.89258 0.557675 0.521636 -9.84037 0.247746 -7.27862 -3.57871 -1.64233 0.0280336 13.8817 2.89924 1.2525 -7.57702 -8.45824 -1.25764 -11.4552 0.635857 -0.00723969 2.15631 -0.0678417 -0.00723989 2.15632 -0.067842 -1.68214 -1.35058 0.205508 -28.1641 7.84521 -13.6625 -53.6142 39.6121 10.5503 13.3777 2.33026 -25.6629 -5.0986 -0.648224 -0.486747 1.59028e-015 -3.18055e-015 -7.95139e-016 1.59028e-015 0 -0 34.3837 8.0861 13.3559 52.3081 28.7542 -16.3306 1.54119 -26.5531 28.9822 10.7458 -1.01243 -13.9059 0 3.18055e-015 -0 0 0 -0 -0.805906 -0.267067 -0.0995917 
7.05388 95.6078 -8.44093 -0.408898 -3.07001 0.791525 0.0488151 1.04367 0.0091748 6.28772 -5.61962 8.7482 -1.10885 14.333 -1.1064 -3.28069 -5.74337 0.317789 0.528239 -9.82104 0.257408 -7.38357 -3.73684 -1.69048 0.195816 13.9038 2.4076 1.41113 -7.60713 -8.22108 -1.41779 -11.4364 0.71027 -0.118941 2.08736 0.0113239 -0.11894 2.08734 0.0113235 -1.61297 -1.46062 0.244602 -27.9649 7.94009 -13.7394 -53.3505 39.8835 10.2703 13.4692 2.55486 -25.581 -5.23848 -0.620898 -0.609872 -1.59028e-015 3.18055e-015 -3.18055e-015 -1.59028e-015 3.18056e-015 -2.38542e-015 34.0293 8.23016 13.5825 51.4043 27.1822 -16.4173 0.0464799 -22.5958 36.0073 10.4171 -0.777482 -15.1281 -3.97569e-016 9.54166e-015 1.59028e-015 0 6.36111e-015 -0 -0.79702 -0.205165 -0.044653 
